<svg xmlns="http://www.w3.org/2000/svg" viewBox="0 0 65.44 85.33"><defs><style>.cls-1{fill:#ea5b0c;}</style></defs><g id="Layer_2" data-name="Layer 2"><g id="Layer_1-2" data-name="Layer 1"><path class="cls-1" d="M1.11,85.33A2,2,0,0,1,0,83.21Q0,46.93,0,10.64C0,9,.47,8.51,2.12,8.51q19.26,0,38.5,0a2.75,2.75,0,0,1,2.13.89q6.63,6.67,13.31,13.32a2.7,2.7,0,0,1,.88,2.06q0,29.23,0,58.49a1.94,1.94,0,0,1-1.17,2.07ZM3,11.43V82.35H54V25.63h-.94c-3.72,0-7.44,0-11.16,0-1.57,0-2.09-.52-2.09-2.1V11.43ZM51.65,22.66c-3-3-5.94-5.93-8.87-8.84v8.84Z"/><path class="cls-1" d="M11.42,2.89V5.64H8.61c0-1.51,0-3,0-4.43A1.25,1.25,0,0,1,9.9,0a7.63,7.63,0,0,1,.83,0H63.31c1.76,0,2.13.37,2.13,2.15V74.65c0,1.71-.44,2.15-2.18,2.15H59.8V73.88h2.73v-71Z"/><path class="cls-1" d="M11.46,65.35v-2.8H45.51v2.8Z"/><path class="cls-1" d="M11.46,31.25v-2.8H45.51v2.8Z"/><path class="cls-1" d="M11.44,48.28V45.54H45.5v2.74Z"/><path class="cls-1" d="M20,74V71h.89c7.9,0,15.81,0,23.72,0,.74,0,1,.15,1,1-.05,2,0,2-2,2H20Z"/><path class="cls-1" d="M34.1,39.79H11.46V37H34.1Z"/><path class="cls-1" d="M24.21,56.8V54.05h21.3V56.8Z"/><path class="cls-1" d="M11.48,19.9H22.74v2.82H11.48Z"/><path class="cls-1" d="M21.35,56.81H11.46V54.07h9.89Z"/><path class="cls-1" d="M37,39.77V37h8.51v2.75Z"/><path class="cls-1" d="M17.07,71.14v2.77H11.46V71.14Z"/></g></g></svg>