<?xml version="1.0" encoding="UTF-8" standalone="no"?>
<svg width="60px" height="60px" viewBox="0 0 60 60" version="1.1" xmlns="http://www.w3.org/2000/svg" xmlns:xlink="http://www.w3.org/1999/xlink">
    <!-- Generator: Sketch 39.1 (31720) - http://www.bohemiancoding.com/sketch -->
    <title>strategic-move</title>
    <desc>Created with Sketch.</desc>
    <defs></defs>
    <g id="Marketing" stroke="none" stroke-width="1" fill="none" fill-rule="evenodd">
        <g id="canvas" transform="translate(-61.000000, -540.000000)" fill-opacity="0" fill="#FFFFFF">
            <rect x="0" y="0" width="660" height="660"></rect>
        </g>
        <g id="strategic-move">
            <g id="fill" transform="translate(15.000000, 1.000000)">
                <path d="M30,54 L30,58 L0,58 L0,54 C0,52 2,50 4,50 L8,50 L22,50 L26,50 C28,50 30,52 30,54" id="Fill-3" fill="#AAB1BA"></path>
                <path d="M8,20 C6.9,20 6,19.1 6,18 C6,16.9 6.9,16 8,16 L13,16 L13,9 L8,9 L8,5 L13,5 L13,0 L17,0 L17,5 L22,5 L22,9 L17,9 L17,16 L22,16 C23.1,16 24,16.9 24,18 C24,19.1 23.1,20 22,20 C22,20 21,23 21,30 C21,37 26,42 26,46 C26,48 24,50 22,50 L8,50 C6,50 4,48 4,46 C4,42 9,37 9,30 C9,28.47 8.76,26.05 8.52,23.98 L8,20 Z" id="Fill-1" fill="#ECF4F7"></path>
            </g>
            <path d="M37,51 C39,51 41,49 41,47 C41,43 36,38 36,31 C36,24 37,21 37,21 C38.104,21 39,20.104 39,19 C39,17.896 38.104,17 37,17 L32,17 L32,10 L37.001,10 L37.001,6 L32,6 L32.001,1 L28.001,1 L28,6 L23,6 L23,10 L28,10 L28,17 L23,17 C21.896,17 21,17.896 21,19 C21,20.104 21.896,21 23,21 L33,21 M27,51 L41,51 C43,51 45,53 45,55 L45,59 L15,59 L15,55 C15,53 17,51 19,51 L23,51 C21,51 19,49 19,47 C19,43 24,38 24,31 C24,29.465 23.762,27.055 23.518,24.983" id="stroke" stroke="#51565F" stroke-linecap="round" stroke-linejoin="round"></path>
        </g>
    </g>
</svg>