<svg xmlns="http://www.w3.org/2000/svg" viewBox="0 0 72 72"><defs><style>.cls-1{fill:#e9511c;}.cls-2{fill:none;stroke:#e9511c;stroke-miterlimit:10;stroke-width:2px;stroke-dasharray:2 2;}</style></defs><g id="Layer_2" data-name="Layer 2"><g id="Layer_1-2" data-name="Layer 1"><path class="cls-1" d="M62.46,35.32A27.26,27.26,0,0,0,56.19,19.1c-.51-.61-.5-1.21,0-1.62s1.12-.29,1.65.34a28.43,28.43,0,0,1-16,46,27.84,27.84,0,0,1-24-6,1.08,1.08,0,0,1-.32-1.6,1.07,1.07,0,0,1,1.63,0,25.64,25.64,0,0,0,13.14,5.88A25.77,25.77,0,0,0,52.1,56.85a25.77,25.77,0,0,0,9.82-16.18C62.24,38.91,62.28,37.1,62.46,35.32Z"/><path class="cls-1" d="M37.32,9.67c-7.22-.06-13.13,1.89-18.2,6.13a25.39,25.39,0,0,0-9,15.53,25.87,25.87,0,0,0,5.23,21c.18.23.38.45.56.69a1,1,0,1,1-1.64,1.27c-.78-1-1.59-2.05-2.29-3.14A27.61,27.61,0,0,1,7.69,38.42,28.19,28.19,0,0,1,27,9.08c9.91-3.2,19-1.37,27.18,5.12.64.51.76,1.15.33,1.65s-1,.48-1.63,0a25.68,25.68,0,0,0-11.41-5.53C39.91,10,38.3,9.81,37.32,9.67Z"/><path class="cls-1" d="M31.9,30.78a48.25,48.25,0,0,1,0,5.38,6.14,6.14,0,0,1-6.93,5.05,6.29,6.29,0,0,1-5.47-6.1q0-4.36,0-8.73A6.27,6.27,0,0,1,25,20.31a6.17,6.17,0,0,1,6.88,5,41.1,41.1,0,0,1,0,5.44Zm-10.39,0h0c0,1.42,0,2.83,0,4.24a4.25,4.25,0,0,0,3.86,4.15,4,4,0,0,0,4.47-3.64,90.65,90.65,0,0,0,0-9.47,4,4,0,0,0-4.3-3.7,4.22,4.22,0,0,0-4,4C21.45,27.81,21.51,29.3,21.51,30.77Z"/><path class="cls-1" d="M30.63,47.18c.08-.12.14-.32.26-.37.37-.15.81-.4,1.14-.31a1.18,1.18,0,0,1,.66.89c.05,2.21.06,4.41,0,6.62a1.29,1.29,0,0,1-.71.93c-.28.1-.73-.17-1.08-.32-.12,0-.18-.25-.26-.38-2.24.74-3.95.3-5.06-1.28a4,4,0,0,1,5.05-5.78ZM28.8,52.56a1.85,1.85,0,1,0,0-3.7,1.85,1.85,0,0,0,0,3.7Z"/><path class="cls-1" d="M35.67,25.38A4.66,4.66,0,0,1,37.14,22a3.64,3.64,0,0,1,5.46.44,4.63,4.63,0,0,1,.52,5.13,3.87,3.87,0,0,1-3.66,2.28,4.11,4.11,0,0,1-3.57-3.1A11.9,11.9,0,0,1,35.67,25.38Zm4-2.36a1.72,1.72,0,0,0-1.52,1,2.72,2.72,0,0,0,.3,3.17c.95,1,2.41.6,2.93-.85S41,23,39.67,23Z"/><path class="cls-1" d="M52.57,36.17a4.52,4.52,0,0,1-1.34,3.32,3.66,3.66,0,0,1-5.39-.16,4.8,4.8,0,0,1-.29-6,3.67,3.67,0,0,1,6.23.2,13.7,13.7,0,0,1,1,2.55Zm-2.08,0a1.91,1.91,0,1,0-3.73-.09,2.15,2.15,0,0,0,1.71,2.41A2.07,2.07,0,0,0,50.49,36.17Z"/><path class="cls-1" d="M41,39.54A1.07,1.07,0,0,1,40,38c.37-.93.78-1.84,1.16-2.76l5.24-12.5a5.4,5.4,0,0,1,.23-.49,1,1,0,0,1,1.26-.52,1,1,0,0,1,.66,1.2,2.21,2.21,0,0,1-.18.51Q45.2,31,42,38.57C41.81,39.1,41.53,39.49,41,39.54Z"/><path class="cls-1" d="M41.23,55a4.16,4.16,0,0,1-3.73-2.83,4.24,4.24,0,0,1,1.33-4.74,4.33,4.33,0,0,1,4.85-.38c.49.28.82.68.63,1.22a1.44,1.44,0,0,1-.81.78c-.28.09-.68-.13-1-.27a2.18,2.18,0,0,0-2.26,3.72,1.87,1.87,0,0,0,2.54-.1c.57-.5,1.13-.51,1.56,0a1,1,0,0,1-.12,1.52A3.69,3.69,0,0,1,41.23,55Z"/><path class="cls-1" d="M34.09,49.14c0-1.52,0-3,0-4.57,0-.78.4-1.27,1-1.28s1,.47,1,1.25q0,4.65,0,9.28c0,.77-.38,1.19-1,1.19s-1-.44-1-1.23C34.08,52.24,34.09,50.69,34.09,49.14Z"/><path class="cls-1" d="M47.51,53.92a1,1,0,0,1-1,1,1.09,1.09,0,0,1-1-1.06,1.11,1.11,0,0,1,1.07-1A1.05,1.05,0,0,1,47.51,53.92Z"/><circle class="cls-2" cx="36" cy="36" r="35"/></g></g></svg>