<svg width="72" height="72" viewBox="0 0 72 72" fill="none" xmlns="http://www.w3.org/2000/svg">
<path d="M62.46 35.32C62.1968 29.3738 59.9947 23.6772 56.19 19.1C55.68 18.49 55.69 17.89 56.19 17.48C56.69 17.07 57.31 17.19 57.84 17.82C60.9738 21.5877 63.0804 26.1014 63.9555 30.9233C64.8306 35.7451 64.4444 40.7112 62.8345 45.3398C61.2245 49.9684 58.4455 54.1023 54.767 57.3402C51.0885 60.5782 46.6355 62.8103 41.84 63.82C37.6478 64.7373 33.3002 64.673 29.137 63.6322C24.9737 62.5914 21.1074 60.6022 17.84 57.82C17.7055 57.7435 17.589 57.639 17.4984 57.5136C17.4078 57.3882 17.3453 57.2447 17.3149 57.093C17.2846 56.9413 17.2872 56.7849 17.3226 56.6342C17.358 56.4836 17.4253 56.3424 17.52 56.22C17.6205 56.1019 17.7454 56.0071 17.8861 55.9421C18.0268 55.877 18.18 55.8433 18.335 55.8433C18.49 55.8433 18.6432 55.877 18.7839 55.9421C18.9247 56.0071 19.0496 56.1019 19.15 56.22C22.8786 59.3946 27.4384 61.435 32.29 62.1C35.7755 62.6263 39.332 62.432 42.7393 61.529C46.1467 60.6259 49.3326 59.0335 52.1 56.85C57.3071 52.8975 60.8174 47.1137 61.92 40.67C62.24 38.91 62.28 37.1 62.46 35.32Z" fill="#E9511C"/>
<path d="M37.32 9.66998C30.1 9.60998 24.19 11.56 19.12 15.8C14.3292 19.7082 11.1291 25.2302 10.12 31.33C9.42376 35.0004 9.53074 38.778 10.4336 42.4031C11.3364 46.0283 13.0136 49.4148 15.35 52.33C15.53 52.56 15.73 52.78 15.91 53.02C15.9934 53.1277 16.0547 53.2507 16.0906 53.3821C16.1264 53.5135 16.136 53.6507 16.1188 53.7858C16.1017 53.9209 16.058 54.0513 15.9905 54.1696C15.9229 54.2878 15.8327 54.3916 15.725 54.475C15.6173 54.5584 15.4943 54.6197 15.3629 54.6556C15.2315 54.6914 15.0943 54.701 14.9592 54.6838C14.8241 54.6666 14.6937 54.623 14.5754 54.5554C14.4572 54.4879 14.3534 54.3977 14.27 54.29C13.49 53.29 12.68 52.24 11.98 51.15C9.52378 47.3245 8.05017 42.9518 7.69 38.42C7.11351 32.066 8.70947 25.7044 12.217 20.375C15.7245 15.0456 20.9361 11.0636 27 9.07998C36.91 5.87998 46 7.70998 54.18 14.2C54.82 14.71 54.94 15.35 54.51 15.85C54.08 16.35 53.51 16.33 52.88 15.85C49.5987 13.0819 45.6758 11.1806 41.47 10.32C39.91 9.99998 38.3 9.80998 37.32 9.66998Z" fill="#E9511C"/>
<path d="M32.4 36.5237C32.5001 38.3156 32.5001 40.1117 32.4 41.9037C32.132 43.4831 31.2573 44.8953 29.9626 45.8388C28.6678 46.7823 27.0556 47.1824 25.47 46.9537C23.9798 46.7581 22.609 46.0354 21.6056 44.9164C20.6022 43.7975 20.0326 42.3563 20 40.8537C20 37.947 20 35.037 20 32.1237C20.0366 30.6205 20.6122 29.1806 21.6218 28.0664C22.6314 26.9522 24.0077 26.2379 25.5 26.0537C27.0693 25.8454 28.6586 26.2482 29.9391 27.1789C31.2197 28.1095 32.0936 29.4968 32.38 31.0537C32.5001 32.865 32.5001 34.6823 32.38 36.4937L32.4 36.5237ZM22.01 36.5237C22.01 37.9437 22.01 39.3537 22.01 40.7637C22.0302 41.8091 22.4351 42.8104 23.1472 43.576C23.8594 44.3417 24.8288 44.8179 25.87 44.9137C26.4043 44.9787 26.9462 44.9353 27.4633 44.786C27.9804 44.6367 28.4621 44.3846 28.8795 44.0447C29.2968 43.7048 29.6413 43.2842 29.8923 42.8081C30.1432 42.332 30.2955 41.8101 30.34 41.2737C30.505 38.1192 30.505 34.9582 30.34 31.8037C30.3021 31.2778 30.1605 30.7647 29.9236 30.2938C29.6867 29.8229 29.359 29.4034 28.9593 29.0596C28.5597 28.7157 28.0961 28.4542 27.5951 28.2902C27.0941 28.1261 26.5656 28.0628 26.04 28.1037C24.9963 28.1568 24.0095 28.5953 23.2706 29.3342C22.5316 30.0732 22.0931 31.06 22.04 32.1037C21.95 33.5537 22.01 35.0437 22.01 36.5137V36.5237Z" fill="#E9511C"/>
<path d="M36.17 31.1236C36.1723 30.4899 36.3039 29.8633 36.5566 29.2821C36.8094 28.701 37.178 28.1775 37.64 27.7436C38.0119 27.3821 38.4567 27.1041 38.9448 26.9285C39.4328 26.7528 39.9528 26.6835 40.4698 26.7252C40.9868 26.7669 41.4889 26.9185 41.9426 27.1701C42.3962 27.4216 42.7908 27.7672 43.1 28.1836C43.6855 28.8908 44.0476 29.7561 44.1402 30.6695C44.2328 31.583 44.0517 32.5033 43.62 33.3136C43.3049 34.0139 42.7887 34.6046 42.137 35.0106C41.4852 35.4166 40.7274 35.6196 39.96 35.5936C39.1182 35.5073 38.3235 35.1632 37.6846 34.6084C37.0456 34.0535 36.5935 33.315 36.39 32.4936C36.2901 32.0416 36.2166 31.5842 36.17 31.1236V31.1236ZM40.17 28.7636C39.8485 28.7715 39.5356 28.8694 39.2669 29.0462C38.9983 29.223 38.7845 29.4715 38.65 29.7636C38.3606 30.2565 38.2338 30.8281 38.2876 31.3971C38.3415 31.9662 38.5732 32.5038 38.95 32.9336C39.9 33.9336 41.36 33.5336 41.88 32.0836C42.4 30.6336 41.5 28.7436 40.17 28.7436V28.7636Z" fill="#E9511C"/>
<path d="M53.07 41.9137C53.0845 42.5291 52.9732 43.1411 52.7427 43.712C52.5123 44.2829 52.1677 44.8007 51.73 45.2337C51.3762 45.5968 50.9509 45.8825 50.4809 46.0726C50.0109 46.2627 49.5066 46.3531 48.9998 46.338C48.4931 46.323 47.995 46.2028 47.5371 45.9852C47.0793 45.7675 46.6716 45.4571 46.34 45.0737C45.6163 44.2557 45.1932 43.2155 45.1404 42.1246C45.0877 41.0338 45.4086 39.9576 46.05 39.0737C46.3963 38.5547 46.8691 38.1326 47.4239 37.8472C47.9787 37.5618 48.597 37.4225 49.2206 37.4425C49.8441 37.4625 50.4523 37.6412 50.9876 37.9616C51.5229 38.282 51.9677 38.7336 52.28 39.2737C52.6977 40.0881 53.0327 40.9424 53.28 41.8237L53.07 41.9137ZM50.99 41.9137C51.058 41.6362 51.0629 41.3471 51.0043 41.0676C50.9458 40.788 50.8253 40.5252 50.6517 40.2983C50.4781 40.0715 50.2559 39.8865 50.0014 39.7569C49.7468 39.6274 49.4665 39.5565 49.181 39.5496C48.8954 39.5427 48.612 39.6 48.3515 39.7171C48.091 39.8343 47.8601 40.0083 47.6758 40.2265C47.4915 40.4447 47.3585 40.7015 47.2865 40.9779C47.2145 41.2543 47.2055 41.5433 47.26 41.8237C47.183 42.3678 47.3173 42.9208 47.6354 43.369C47.9534 43.8172 48.431 44.1266 48.97 44.2337C49.26 44.2288 49.5457 44.163 49.8087 44.0406C50.0716 43.9182 50.3059 43.742 50.4964 43.5232C50.6868 43.3045 50.8292 43.0482 50.9142 42.7709C50.9992 42.4936 51.0251 42.2016 50.99 41.9137V41.9137Z" fill="#E9511C"/>
<path d="M41.5 45.2837C41.3151 45.2904 41.1317 45.2491 40.9676 45.1639C40.8034 45.0786 40.6642 44.9522 40.5635 44.7971C40.4627 44.642 40.4039 44.4634 40.3928 44.2788C40.3817 44.0941 40.4186 43.9098 40.5 43.7437C40.87 42.8137 41.28 41.9037 41.66 40.9837L46.9 28.4837C46.9684 28.3166 47.0452 28.153 47.13 27.9937C47.2353 27.7637 47.4238 27.5822 47.6576 27.4857C47.8914 27.3892 48.1531 27.3849 48.39 27.4737C48.632 27.5522 48.835 27.72 48.9576 27.9429C49.0803 28.1659 49.1133 28.4272 49.05 28.6737C49.0111 28.8504 48.9506 29.0217 48.87 29.1837C46.7566 34.2237 44.6333 39.267 42.5 44.3137C42.31 44.8437 42.03 45.2337 41.5 45.2837Z" fill="#E9511C"/>
<path d="M36 71C55.33 71 71 55.33 71 36C71 16.67 55.33 1 36 1C16.67 1 1 16.67 1 36C1 55.33 16.67 71 36 71Z" stroke="#E9511C" stroke-width="2" stroke-miterlimit="10" stroke-dasharray="2 2"/>
</svg>
