<svg xmlns="http://www.w3.org/2000/svg" viewBox="0 0 67.84 67.66"><defs><style>.cls-1{fill:#e9511c;}</style></defs><g id="Layer_2" data-name="Layer 2"><g id="Layer_1-2" data-name="Layer 1"><path class="cls-1" d="M61.11,33.74A27.3,27.3,0,1,1,33.91,6.42,27.32,27.32,0,0,1,61.11,33.74Zm-2.19,0A25.11,25.11,0,1,0,34,58.81,25.17,25.17,0,0,0,58.92,33.7Z"/><path class="cls-1" d="M56.76,12.05v3.06H54.57c0-1.87,0-3.73,0-5.58a.91.91,0,0,1,.94-.91c1.84,0,3.68,0,5.55,0v2.15H59c10,12.64,12,26.15,3.86,40.27C56.52,62,46.46,67.12,33.87,67.66V65.57C49.73,64.25,60.5,56.46,64.6,40.79A30.6,30.6,0,0,0,56.76,12.05Z"/><path class="cls-1" d="M.41,39.28.1,37.06l2.21-.22.27,2.08Z"/><path class="cls-1" d="M6.25,14l1.36-1.77,1.7,1.38L8.06,15.32Z"/><path class="cls-1" d="M.81,26.07l.58-2.15,2.11.63-.54,2Z"/><path class="cls-1" d="M28.56,2.49,28.21.32,30.4,0l.26,2.2Z"/><path class="cls-1" d="M10.67,58.45,9.1,56.85l1.5-1.42,1.51,1.47Z"/><path class="cls-1" d="M6.91,17l-1,1.83-2-1,1.12-2Z"/><path class="cls-1" d="M4.16,22.61l-2.07-.78L3,19.76l2,.91Z"/><path class="cls-1" d="M1.41,43.59.83,41.42,3,40.92l.55,2Z"/><path class="cls-1" d="M18.89,61.65l-1.05,2-1.93-1.12,1.17-1.88Z"/><path class="cls-1" d="M20.72,62.56l1.94.8-.78,2.07-2.07-.86Z"/><path class="cls-1" d="M30.49,67.43l-2.21-.29L28.63,65l2.07.27Z"/><path class="cls-1" d="M23.91,1.32,26.06.74l.51,2.14-2,.56Z"/><path class="cls-1" d="M.39,28.22l2.18.36-.28,2.07L.1,30.44Z"/><path class="cls-1" d="M5.06,51.63,3.93,49.69l1.95-1,1.06,1.8Z"/><path class="cls-1" d="M8.07,52.15l1.27,1.66L7.65,55.22,6.27,53.45Z"/><path class="cls-1" d="M24.6,64c.6.16,1.11.26,1.59.43.15.06.37.3.35.43-.1.59-.27,1.17-.43,1.82L24,66.14Z"/><path class="cls-1" d="M20.68,4.91l-.91-2L21.82,2l.79,2.05Z"/><path class="cls-1" d="M13.69,9.28l-1.4-1.7L14,6.21,15.34,8Z"/><path class="cls-1" d="M5,46.81l-2,.92-.86-2.06,2.05-.79Z"/><path class="cls-1" d="M14.09,61.25,12.32,59.9l1.39-1.71,1.67,1.26Z"/><path class="cls-1" d="M10.66,9l1.41,1.51L10.54,12l-1.49-1.4Z"/><path class="cls-1" d="M15.87,5,17.8,3.87,18.85,5.8,17,6.87Z"/><path class="cls-1" d="M0,34.77V32.69H2.12v2.08Z"/><path class="cls-1" d="M33.84,10.79a22.93,22.93,0,1,1-23,22.75A22.88,22.88,0,0,1,33.84,10.79ZM54.56,33.73A20.75,20.75,0,1,0,33.94,54.45,20.81,20.81,0,0,0,54.56,33.73Z"/><path class="cls-1" d="M32.72,35.91h2.15v2.14H32.74v2.18H30.57V38.09c-1.47,0-2.87,0-4.27,0a1,1,0,0,1-1.18-.88,1.5,1.5,0,0,1,.23-1c1.74-2.82,3.5-5.62,5.25-8.44a1.12,1.12,0,0,1,2.13.64C32.71,30.9,32.72,33.36,32.72,35.91Zm-2.23,0v-3.7l-2.31,3.7Z"/><path class="cls-1" d="M24,38v2.23H21.79c-1.36,0-2.73,0-4.09,0a1.14,1.14,0,0,1-1-2c1.34-1.6,2.71-3.19,4-4.83a5.48,5.48,0,0,0,1-1.91,1.65,1.65,0,0,0-1.35-2.18,1.68,1.68,0,0,0-1.82,1.75c0,.11,0,.22,0,.41H16.43a3.76,3.76,0,0,1,3.26-4.35A3.85,3.85,0,0,1,24,30.82a5.44,5.44,0,0,1-1.22,3.66c-.93,1.17-1.9,2.31-2.93,3.56Z"/><path class="cls-1" d="M50.8,38v2.23H44.54a1.16,1.16,0,0,1-1.25-.62,1.21,1.21,0,0,1,.29-1.37c1.35-1.59,2.71-3.18,4-4.82a5.73,5.73,0,0,0,1-1.91,1.64,1.64,0,0,0-1.34-2.18,1.68,1.68,0,0,0-1.83,1.74c0,.12,0,.23,0,.42H43.27a3.76,3.76,0,0,1,3.26-4.35,3.84,3.84,0,0,1,4.3,3.63,5.46,5.46,0,0,1-1.21,3.67c-.94,1.17-1.91,2.31-2.94,3.56Z"/><path class="cls-1" d="M36,40c1.1-4.4,2.19-8.73,3.29-13.13l2.15.54c-1.1,4.4-2.19,8.71-3.29,13.12Z"/></g></g></svg>