<svg xmlns="http://www.w3.org/2000/svg" viewBox="0 0 72 72"><defs><style>.cls-1{fill:none;stroke:#e9511c;stroke-miterlimit:10;stroke-width:2px;stroke-dasharray:2 2;}.cls-2{fill:#e9511c;}</style></defs><g id="Layer_2" data-name="Layer 2"><g id="Layer_1-2" data-name="Layer 1"><circle class="cls-1" cx="36" cy="36" r="35"/><path class="cls-2" d="M29,36.49c-.52-5.14-3-9.36-5.62-13.5,1.79-.91,3.14,0,9.33,5.53L28.59,16.3C31.91,17.53,34,20,36.29,23l-.9-6.7.55-.2c2.63,2,3.52,5.07,5,8.18.78-4.83.74-9.59,2.87-13.81l.75-.11c.54,1.73,1.19,3.43,1.6,5.2s.58,3.63.92,5.91l2.26-6.06h.94l1.88,9c1.69-4.09,3.37-8.06,6.85-10.82l.61.2-3,13.46,6.18-6.35.57.43c-1.72,5-3.45,10-5.25,15.16,1.06.14,1.51.19,2,.27a2.87,2.87,0,0,1,1.16.27c1.85,1.35.91,3.34,1,5.05,0,.9-.56,2.43-1.18,2.61-1.42.39-1.5,1.29-1.67,2.35-.5,3.18-1,6.37-1.55,9.54-.52,2.85-2,4-4.88,4q-9.37,0-18.75,0c-3,0-4.59-1.36-5.07-4.34-.55-3.31-1-6.64-1.63-9.94a2,2,0,0,0-1-1.36,2.34,2.34,0,0,1-1.76-2.58c0-.27,0-.54,0-.81C24.63,37.17,24.63,37.17,29,36.49Zm-.51,7.95c.7,4.29,1.32,8.4,2.08,12.48a2.75,2.75,0,0,0,2.88,2.35q10,0,19.95,0a2.77,2.77,0,0,0,3-2.27c.77-4.13,1.38-8.29,2.08-12.56Zm14.9-.81h0c4.64,0,9.27,0,13.91,0,4.12,0,3.55.77,3.67-3.81,0-1.49-.59-1.79-1.91-1.79Q43.53,38.07,28,38c-1.54,0-2.3.41-2.09,2.05a6.67,6.67,0,0,1,0,1.61c-.14,1.46.42,2,1.95,2C33.05,43.58,38.22,43.63,43.4,43.63Zm1.81-7c.79-7.84,1.34-15.46-1.07-22.94A55.42,55.42,0,0,0,43,36.61a8.89,8.89,0,0,0,1.06.11A9.29,9.29,0,0,0,45.21,36.62Zm5.15-17.69-1,0a53.89,53.89,0,0,0-2.6,17.69h3.59ZM37,37.12c.54-7.06.2-13.22-5.32-17.42.77,3.51,1.54,7.21,2.41,10.89.42,1.81,1,3.6,1.57,5.36C35.74,36.32,36.28,36.55,37,37.12ZM57.1,18c-4,5.54-5.31,11.87-5.05,18.63C56.16,31.13,55.16,24.17,57.1,18ZM37.45,19.94l1.22,16.62h2.88C41.4,30.71,40.42,25.26,37.45,19.94ZM34.38,36.62a20.7,20.7,0,0,0-7.51-11.27l4,11.27ZM60,26a21.65,21.65,0,0,0-5.66,10.62h2.57C58,33,59,29.5,60,26Z"/><path class="cls-2" d="M46.11,57.32H33.35V57H46.09Z"/><path class="cls-2" d="M15.46,30.15c-1.57,1.25-2.47,1.26-4.16.1a.82.82,0,0,0-.58-.05c-.3.08-.57.26-.87.37a1.12,1.12,0,0,0-.86,1,2,2,0,0,1-1.9,1.63,2.12,2.12,0,0,1-1.53-3.73A1.94,1.94,0,0,1,8,29.28c.65.48,1.08,0,1.58-.16s1-.36.95-1.14a2.43,2.43,0,0,1,1.57-2.26c.37-.18.53-.37.49-.77a5,5,0,0,1,0-.95,1.77,1.77,0,0,0-1-2.05,2.53,2.53,0,0,1-1-3.09,2.84,2.84,0,0,1,2.78-1.95A2.88,2.88,0,0,1,16,19a2.62,2.62,0,0,1-1.2,3.09,1.37,1.37,0,0,0-.82,1.6,2.26,2.26,0,0,1,0,.52A1.48,1.48,0,0,0,14.91,26a2.32,2.32,0,0,1,1.22,2.33.72.72,0,0,0,.51.81c.83.4,1.66.82,2.47,1.25a.74.74,0,0,0,1-.08,2.69,2.69,0,0,1,3.49,0,2.84,2.84,0,0,1-2.36,5A2.78,2.78,0,0,1,19,32.5a.83.83,0,0,0-.54-.89c-.93-.43-1.84-.91-2.75-1.36Zm-.74-10.4a1.41,1.41,0,1,0-1.37,1.4A1.4,1.4,0,0,0,14.72,19.75Zm-1.4,9.9a1.43,1.43,0,0,0,1.4-1.39,1.41,1.41,0,0,0-1.46-1.4,1.37,1.37,0,0,0-1.35,1.42A1.39,1.39,0,0,0,13.32,29.65Zm8.5,1.46a1.35,1.35,0,0,0-1.41,1.36,1.37,1.37,0,0,0,1.41,1.43,1.39,1.39,0,0,0,1.38-1.4A1.37,1.37,0,0,0,21.82,31.11Zm-15,.77h.32c.16-.27.48-.57.45-.8s-.43-.45-.66-.67c-.22.24-.59.46-.61.72S6.63,31.62,6.81,31.88Z"/></g></g></svg>