<svg xmlns="http://www.w3.org/2000/svg" viewBox="0 0 72 72"><defs><style>.cls-1{fill:none;stroke:#e9511c;stroke-miterlimit:10;stroke-width:2px;stroke-dasharray:2 2;}.cls-2{fill:#e9511c;}</style></defs><g id="Layer_2" data-name="Layer 2"><g id="Layer_1-2" data-name="Layer 1"><circle class="cls-1" cx="36" cy="36" r="35"/><path class="cls-2" d="M36,12.5a15.66,15.66,0,0,0-9.33,2.8,11,11,0,0,0-2.83,2.84.28.28,0,0,0,0,.2l.88,6.22a13.61,13.61,0,0,0-.28,2.74,14.61,14.61,0,0,0,.71,4.44,2.64,2.64,0,0,0-.69.35,1.48,1.48,0,0,0-.63,1.16,13.2,13.2,0,0,0,.64,3.23,8.48,8.48,0,0,0,.65,1.83,2.15,2.15,0,0,0,1.15.87v2a5.36,5.36,0,0,0,1.57,3.09,15.76,15.76,0,0,0,3.32,3v1.56a1.05,1.05,0,0,1,0,.13h0a.6.6,0,0,1-.38.44h0l-.46.17c-1.06.37-2.81,1-5.45,2a8.22,8.22,0,0,0-5.28,7.29.61.61,0,0,0,.61.61H51.87a.61.61,0,0,0,.61-.61A8.22,8.22,0,0,0,47.2,51.6c-2.64-1-4.39-1.62-5.45-2h0l-.46-.16h0A.59.59,0,0,1,40.9,49a.83.83,0,0,1,0-.13V47.31a15.76,15.76,0,0,0,3.32-3l0-.06.3,0a3,3,0,0,0,2.74-1.88,3,3,0,0,0,2.75-3s0,0,0-.08a3.85,3.85,0,0,0,.51-6.19,3.57,3.57,0,0,0,.11-.75A3.37,3.37,0,0,0,47.5,29a13.35,13.35,0,0,0,.1-1.69,13.63,13.63,0,0,0-.3-2.66l.9-6.3a.28.28,0,0,0,0-.2,11,11,0,0,0-2.83-2.84A15.66,15.66,0,0,0,36,12.5Zm0,.61a15,15,0,0,1,9,2.69,10,10,0,0,1,2.6,2.58l-.83,5.85A14.36,14.36,0,0,0,45,23.36c-.29-.13-.62-.25-1-.38l-.15-.06A23.44,23.44,0,0,0,36,21.66c-.42,0-.83,0-1.22,0H34.6l-1,.07h0a22.36,22.36,0,0,0-5.36,1.11L28,23c-.34.12-.66.24-.93.36s-.56.25-.8.37l0,0c-.5.25-.82.43-1,.53l-.83-5.86A10,10,0,0,1,27,15.8,15,15,0,0,1,36,13.11Zm-.92,1.83a.31.31,0,0,0-.3.31v.91h-.92a.31.31,0,0,0-.3.31V18.3a.3.3,0,0,0,.3.3h.92v.92a.3.3,0,0,0,.3.3h1.84a.3.3,0,0,0,.3-.3V18.6h.92a.3.3,0,0,0,.3-.3V16.47a.31.31,0,0,0-.3-.31h-.92v-.91a.31.31,0,0,0-.3-.31Zm.31.61h1.22v.92a.3.3,0,0,0,.31.3h.91V18h-.91a.31.31,0,0,0-.31.31v.91H35.39V18.3a.31.31,0,0,0-.31-.31h-.91V16.77h.91a.3.3,0,0,0,.31-.3ZM36,22.27c.43,0,.86,0,1.26,0h.11A22.83,22.83,0,0,1,44,23.61l0,0a11.92,11.92,0,0,1,1.13.46c.3.13.57.26.78.37h0c.47.25.73.42.76.44A13.45,13.45,0,0,1,47,27.3a13.65,13.65,0,0,1-.71,4.27c-.24-.05-.47-.09-.65-.11a8.58,8.58,0,0,0-1.5-4,5.73,5.73,0,0,0-4.77-2.1,12.49,12.49,0,0,0-3.36.61,13,13,0,0,0-3.36-.61,5.71,5.71,0,0,0-4.77,2.09,8.56,8.56,0,0,0-1.5,4.05c-.18,0-.41.06-.66.11A13.88,13.88,0,0,1,25,27.3a12.39,12.39,0,0,1,.25-2.38,12.6,12.6,0,0,1,1.56-.83A22.38,22.38,0,0,1,36,22.27Zm-3.36,3.66a13.12,13.12,0,0,1,3.28.6h.16a12.68,12.68,0,0,1,3.28-.6,5.09,5.09,0,0,1,4.29,1.86A8,8,0,0,1,45,31.48c-.32,0-.68-.06-1.1-.06a13,13,0,0,0-6.5,1.49,3.14,3.14,0,0,1-2.88,0,13,13,0,0,0-6.5-1.49c-.42,0-.78,0-1.1.06a7.92,7.92,0,0,1,1.39-3.69A5,5,0,0,1,32.64,25.93Zm-.91,3.66a21.41,21.41,0,0,0-3.49.26.18.18,0,1,0,0,.35,55,55,0,0,1,5.83.61h.09c.09,0,.09,0,.18-.09l.44-.61v-.22A14.06,14.06,0,0,0,31.73,29.59Zm8.54,0a14.06,14.06,0,0,0-3.05.3v.22l.44.61c.09.09.09.09.18.09h.09a55,55,0,0,1,5.83-.61.18.18,0,1,0,0-.35A21.41,21.41,0,0,0,40.27,29.59Zm7.14,0a2.68,2.68,0,0,1,2.51,3.48.32.32,0,0,0,.1.32,3.34,3.34,0,0,1-.46,5.51.31.31,0,0,0-.15.29c0,.09,0,.14,0,.16a2.43,2.43,0,0,1-2.32,2.43.29.29,0,0,0-.27.2,2.44,2.44,0,0,1-2.13,1.63,4.32,4.32,0,0,0,1.06-2.43v-2a2.15,2.15,0,0,0,1.15-.87,8.48,8.48,0,0,0,.65-1.83,13.2,13.2,0,0,0,.64-3.23,1.48,1.48,0,0,0-.63-1.16,2.3,2.3,0,0,0-.7-.35A16.69,16.69,0,0,0,47.41,29.6ZM28.45,32a11.23,11.23,0,0,1,5.11,1.08c.13.06,1.22.59,1.22,1.35a1.2,1.2,0,0,1,0,.31,3.83,3.83,0,0,1-3.62,2.74c-3.25,0-3.67-3.27-3.67-4.65C27.45,32.53,27.61,32,28.45,32Zm15.1,0c.84,0,1,.49,1,.83,0,1.38-.42,4.65-3.67,4.65a3.83,3.83,0,0,1-3.62-2.74,1.2,1.2,0,0,1,0-.31c0-.76,1.09-1.29,1.22-1.35A11.23,11.23,0,0,1,43.55,32Zm-17.81.78c.33,2,1.6,5.32,5.38,5.32A4.42,4.42,0,0,0,35.32,35a.63.63,0,0,1,.6-.49h.16a.63.63,0,0,1,.6.49,4.42,4.42,0,0,0,4.2,3.18c3.78,0,5-3.3,5.38-5.32a2,2,0,0,1,.59.25c.13.09.14.11.14.18a14.44,14.44,0,0,1-.59,2.88,8.41,8.41,0,0,1-.54,1.57c-.19.34-.29.44-.7.44a.61.61,0,0,0-.61.61v2.44a6.07,6.07,0,0,1-1.29,2.32,15.11,15.11,0,0,1-3.32,3h0A7.55,7.55,0,0,1,36,47.9a7.55,7.55,0,0,1-3.93-1.39h0a15.11,15.11,0,0,1-3.32-3,6.07,6.07,0,0,1-1.29-2.32V38.75a.61.61,0,0,0-.61-.61c-.41,0-.51-.1-.7-.44a8.41,8.41,0,0,1-.54-1.57A14.44,14.44,0,0,1,25,33.25c0-.07,0-.09.14-.18A2,2,0,0,1,25.74,32.82Zm6,.43a1.22,1.22,0,0,0-1.1.88.59.59,0,0,1,.49-.27.62.62,0,0,1,.61.61.61.61,0,0,1-1.21.09c0,.07,0,.14,0,.22a1.4,1.4,0,0,0,1.22,1.53,1.57,1.57,0,0,0,0-3.06Zm8.54,0a1.24,1.24,0,0,0-1.1.88.6.6,0,0,1,.49-.27.61.61,0,0,1,.61.61.6.6,0,0,1-1.2.09,1.5,1.5,0,0,0,0,.22,1.25,1.25,0,1,0,1.22-1.53ZM34.45,40a.3.3,0,0,0-.28.33.27.27,0,0,0,.06.17,1.91,1.91,0,0,0,.45.38,2.66,2.66,0,0,0,2.64,0,1.91,1.91,0,0,0,.45-.38.31.31,0,0,0-.06-.43.3.3,0,0,0-.43.06,1,1,0,0,1-.28.23,2.05,2.05,0,0,1-2,0,1,1,0,0,1-.28-.23.32.32,0,0,0-.24-.13Zm-3.14,2.45a.27.27,0,0,0-.15.09.23.23,0,0,0,.05.32,8.79,8.79,0,0,0,9.58,0,.23.23,0,0,0-.27-.37,9.25,9.25,0,0,1-9,0A.25.25,0,0,0,31.31,42.41Zm1,5A7.47,7.47,0,0,0,36,48.51a7.47,7.47,0,0,0,3.66-1.13v1.49a1.54,1.54,0,0,0,.05.39h0a1.81,1.81,0,0,0,1.17,1.32l.46.16h0l.17.06L36,56.32l-5.51-5.51.17-.06h0l.46-.16a1.92,1.92,0,0,0,.79-.55l3.87,3.88a.31.31,0,0,0,.44,0l1.52-1.53a.3.3,0,0,0-.42-.44h0L36,53.27l-3.79-3.79a.83.83,0,0,0,.08-.22h0a1.6,1.6,0,0,0,.05-.39Zm7,2.66a.29.29,0,0,0-.21.09l-.61.61a.31.31,0,0,0,0,.43.3.3,0,0,0,.43,0h0l.61-.61a.3.3,0,0,0,0-.43A.28.28,0,0,0,39.35,50Zm-9.49,1L35.78,57a.31.31,0,0,0,.44,0l5.92-5.92c1.07.38,2.38.85,4.63,1.7a6.6,6.6,0,0,1,4.44,5.53H46.38V56.75a.3.3,0,0,0-.31-.3H40.58a.3.3,0,0,0-.31.3v1.53H20.79a6.6,6.6,0,0,1,4.44-5.53C27.48,51.9,28.79,51.43,29.86,51.05Zm11,6h4.89v1.22H40.88Z"/></g></g></svg>