<svg xmlns="http://www.w3.org/2000/svg" viewBox="0 0 72 72"><defs><style>.cls-1,.cls-2{fill:none;stroke:#e9511c;}.cls-1{stroke-miterlimit:10;stroke-width:2px;stroke-dasharray:2 2;}.cls-2{stroke-linecap:round;stroke-linejoin:round;}</style></defs><g id="Layer_2" data-name="Layer 2"><g id="Layer_1-2" data-name="Layer 1"><circle class="cls-1" cx="36" cy="36" r="35"/><path class="cls-2" d="M33.38,26.09l-4,9.73L34.68,23a1.76,1.76,0,0,1,3.25,1.35L32.6,37.16l4.46-10.77a1.76,1.76,0,0,1,3.25,1.35L35.18,40.13,38.55,32a1.76,1.76,0,0,1,3.25,1.35L35.3,49h0a5.63,5.63,0,0,1-3.06,3,6.35,6.35,0,0,0-3.43,3.42,7.45,7.45,0,0,1-9.74-4h0l1.7-4.1a7,7,0,0,1-.93-7L22,29.53a3.5,3.5,0,0,1,2.76,4.12h0l-.92,4.62.58.24,5.7-13.76a1.76,1.76,0,0,1,3.25,1.34Z"/><path class="cls-2" d="M41.22,23.81l4,9.73Z"/><path class="cls-2" d="M53.83,45.07a7,7,0,0,0,.93-6.94L52.6,27.25a3.52,3.52,0,0,0-2.77,4.12h0L50.75,36l-.58.24-5.7-13.76a1.76,1.76,0,0,0-3.25,1.34l-1.3-3.14a1.75,1.75,0,0,0-3.28,1.24A1.46,1.46,0,0,1,37,22a1.76,1.76,0,0,1,1,2.29l-.87,2.09a1.76,1.76,0,0,1,3.25,1.35L38.55,32a1.76,1.76,0,0,1,3.25,1.36l-4,9.71,1.54,3.7h0a5.56,5.56,0,0,0,3.06,3,6.33,6.33,0,0,1,3.42,3.42,7.44,7.44,0,0,0,9.74-4h0Z"/><path class="cls-2" d="M24.28,17l5.21,5.21Z"/><path class="cls-2" d="M17.77,26.11h0Z"/><path class="cls-2" d="M32.09,18.29v0Z"/><path class="cls-2" d="M16.47,19.59l10.41,4.32Z"/></g></g></svg>