<svg xmlns="http://www.w3.org/2000/svg" viewBox="0 0 72 72"><defs><style>.cls-1{fill:none;stroke:#e9511c;stroke-miterlimit:10;stroke-width:2px;stroke-dasharray:2 2;}.cls-2{fill:#ea5b0c;}</style></defs><g id="Layer_2" data-name="Layer 2"><g id="Layer_1-2" data-name="Layer 1"><circle class="cls-1" cx="36" cy="36" r="35"/><path class="cls-2" d="M16.81,35c.1-.71.18-1.43.3-2.13a18.42,18.42,0,0,1,2.17-6.09,19,19,0,0,1,5.89-6.42,18.46,18.46,0,0,1,7-2.95A18.86,18.86,0,0,1,46.32,20l.34.21,1.07-1.54a3.15,3.15,0,0,1,.22-.29c.3-.33.62-.29.76.14s.33,1.1.48,1.65c.32,1.15.65,2.3,1,3.45a.9.9,0,0,1-.89,1.23l-4.73.43-.45,0c-.53,0-.7-.3-.41-.76s.68-1,1-1.48l.19-.29c-.33-.2-.64-.41-1-.6a15.41,15.41,0,0,0-5.84-1.95,15.85,15.85,0,0,0-12,3.32,15.35,15.35,0,0,0-5.85,9.73A16.06,16.06,0,0,0,32.72,51.88l.44.09a1.55,1.55,0,1,1-.68,3A19.06,19.06,0,0,1,19,45a18.14,18.14,0,0,1-2-6.55c0-.36-.1-.71-.15-1.07Z"/><path class="cls-2" d="M33.78,31c0-2,0-3.91,0-5.87a1.27,1.27,0,0,1,1-1.42A1.23,1.23,0,0,1,36.28,25c0,2.16,0,4.31,0,6.47,0,1.32,0,2.65,0,4a.59.59,0,0,0,.38.62l9.49,4.91a1.25,1.25,0,0,1-.84,2.36,3.38,3.38,0,0,1-.51-.24q-5.34-2.76-10.69-5.51a.52.52,0,0,1-.32-.55C33.79,35,33.78,33,33.78,31Z"/><path class="cls-2" d="M52.37,28.06a1.19,1.19,0,0,1,1.13.54,7.63,7.63,0,0,1,.73,2,1.39,1.39,0,0,1-1,1.46,1.44,1.44,0,0,1-1.73-.51,6,6,0,0,1-.68-1.94A1.44,1.44,0,0,1,52.37,28.06Z"/><path class="cls-2" d="M54.34,41.69a10,10,0,0,1-.66,1.62,1.42,1.42,0,0,1-1.84.51A1.49,1.49,0,0,1,51,42a10,10,0,0,1,.45-1.3,1.5,1.5,0,0,1,1.76-.84A1.63,1.63,0,0,1,54.34,41.69Z"/><path class="cls-2" d="M40.06,51.71a1.61,1.61,0,0,1,1.68,1.21,1.52,1.52,0,0,1-1,1.77,7.68,7.68,0,0,1-1.42.32,1.54,1.54,0,0,1-.57-3C39.26,51.86,39.75,51.78,40.06,51.71Z"/><path class="cls-2" d="M49.41,49.11a1.46,1.46,0,0,1-1.36-.82,1.41,1.41,0,0,1,.07-1.55,8.72,8.72,0,0,1,.81-1,1.54,1.54,0,0,1,2.4,1.92,10.58,10.58,0,0,1-.79,1A1.44,1.44,0,0,1,49.41,49.11Z"/><path class="cls-2" d="M44.79,52.93a1.5,1.5,0,0,1-1.42-1,1.46,1.46,0,0,1,.42-1.73,8.57,8.57,0,0,1,1.36-.84,1.48,1.48,0,0,1,1.72.41,1.52,1.52,0,0,1,.18,1.8A3.72,3.72,0,0,1,44.79,52.93Z"/><path class="cls-2" d="M55.19,36a5.36,5.36,0,0,1-.13,1,1.52,1.52,0,0,1-3-.37,10,10,0,0,1,0-1.34,1.51,1.51,0,0,1,1.55-1.41,1.57,1.57,0,0,1,1.52,1.46c0,.22,0,.44,0,.67Z"/></g></g></svg>