<svg xmlns="http://www.w3.org/2000/svg" viewBox="0 0 72 72"><defs><style>.cls-1{fill:none;stroke:#e9511c;stroke-miterlimit:10;stroke-width:2px;stroke-dasharray:2 2;}.cls-2{fill:#e9511c;}</style></defs><g id="Layer_2" data-name="Layer 2"><g id="Layer_1-2" data-name="Layer 1"><circle class="cls-1" cx="36" cy="36" r="35"/><path class="cls-2" d="M36.65,15.06c2.85.69,4.69,2.75,6.52,4.8l.63.74c.2-.24.37-.47.56-.68a1.8,1.8,0,0,1,2.29-.45,1.84,1.84,0,0,1,.91,2.12c0,.1,0,.2-.06.32.8.23,1.59.42,2.36.69a16.11,16.11,0,0,1,2.09.91c2.27,1.24,3,3,2.81,5.62a21.77,21.77,0,0,1-1.37,5.49l-.15.42.72.14a1.85,1.85,0,0,1,.29,3.63l-.32.09c.14.54.3,1.06.43,1.6a11.62,11.62,0,0,1,.38,4,4.68,4.68,0,0,1-2.35,3.68A20.72,20.72,0,0,1,50,49.34a.58.58,0,0,1-.86-.36.62.62,0,0,1,.43-.8c.62-.27,1.25-.52,1.85-.83a3.84,3.84,0,0,0,2.13-3.72,15.81,15.81,0,0,0-.86-4.4l-2,.54c.19.78.42,1.55.56,2.33a14.55,14.55,0,0,1,.16,2,1.37,1.37,0,0,1-.88,1.32,25.07,25.07,0,0,1-2.87,1.12A26.24,26.24,0,0,1,45,47.1c-.29,0-.66.1-.8-.22a1.28,1.28,0,0,1,0-.8,8.34,8.34,0,0,1,.35-.95.59.59,0,0,0-.22-.79.6.6,0,0,0-.8.14l-3.41,3.41a.63.63,0,0,0,0,1c1.13,1.13,2.26,2.25,3.38,3.38a.59.59,0,0,0,.81.15.6.6,0,0,0,.21-.82c-.17-.46-.35-.91-.51-1.37a.61.61,0,0,1,.51-.9q1.32-.26,2.64-.48c.46-.08.78.12.84.5s-.16.62-.61.72l-1.94.39a10.68,10.68,0,0,1,.35,1.1,1.75,1.75,0,0,1-.87,1.94,1.78,1.78,0,0,1-2.15-.21L42.46,53c-.69.65-1.34,1.31-2,1.91a7.73,7.73,0,0,1-3.71,2,4.88,4.88,0,0,1-3.11-.56,15.65,15.65,0,0,1-4.21-3.52c-.4-.44-.78-.9-1.2-1.39l-.47.57a1.85,1.85,0,0,1-3.27-1.62c0-.08,0-.16,0-.28a15.55,15.55,0,0,1-1.56-.43A22.24,22.24,0,0,1,20,48.47c-2.29-1.24-3-3-2.8-5.59a21.38,21.38,0,0,1,1.38-5.52c0-.13.08-.25.14-.41-.27-.05-.5-.1-.74-.13a1.85,1.85,0,0,1-.28-3.63l.3-.09c-.21-.91-.44-1.8-.63-2.7a8.88,8.88,0,0,1-.12-3.25,4.75,4.75,0,0,1,2.23-3.32,12.69,12.69,0,0,1,1.36-.74.63.63,0,0,1,.93.28c.14.33,0,.65-.42.85l-.73.37a3.87,3.87,0,0,0-2.22,3.7,15.51,15.51,0,0,0,.86,4.47l2-.52c-.21-1-.45-1.89-.62-2.83a8.34,8.34,0,0,1-.08-1.5,1.57,1.57,0,0,1,.88-1.34,11.21,11.21,0,0,1,3.15-1.18c.78-.2,1.57-.35,2.36-.49s1.11.28.83,1c-.13.32-.26.63-.37.95a.6.6,0,0,0,.22.79.59.59,0,0,0,.78-.12c1.16-1.15,2.32-2.31,3.46-3.47a.59.59,0,0,0,0-.91l-3.47-3.47a.56.56,0,0,0-.77-.11.59.59,0,0,0-.23.78c.18.47.37.94.54,1.41a.62.62,0,0,1-.52.9l-3.83.77a.65.65,0,0,1-.79-.41.59.59,0,0,1,.46-.78c1-.23,2-.43,2.94-.64l.29-.07c-.07-.21-.13-.41-.2-.61a1.86,1.86,0,0,1,3.06-2.05l.17.15c.18-.19.34-.37.52-.55a12.72,12.72,0,0,1,3.51-2.77c.56-.27,1.16-.43,1.75-.65Zm10.54,8.09s-.06.06-.06.09c-.28,1-.55,2-.82,3a1.84,1.84,0,0,1-2.43,1.41c-1.5-.39-3-.78-4.49-1.2a1.74,1.74,0,0,1-.93-.45,1.41,1.41,0,0,0-1.39-.51h-.94c-.52,0-.76-.25-.76-.76,0-1,0-2.07,0-3.11,0-.54.24-.76.78-.77h1.49l0-.1a15.4,15.4,0,0,0-1.35-.93.79.79,0,0,0-.67,0,11.74,11.74,0,0,0-2.81,2.45,1.9,1.9,0,0,1-.24,2.85L29.4,28.35a2.1,2.1,0,0,1-1.19.65.73.73,0,0,0-.43.3c-.28.42-.52.86-.78,1.29s-.58.59-1.12.28l-2.61-1.51c-.49-.28-.56-.58-.27-1.08L23.75,27l-.07-.09c-.53.25-1.08.49-1.59.77a.55.55,0,0,0-.24.42,11.18,11.18,0,0,0,.7,3.76,1.9,1.9,0,0,1,2.29,1.41c.44,1.6.88,3.2,1.26,4.81A4.08,4.08,0,0,1,26,39.23a1.11,1.11,0,0,0,0,.52c.25.5.53,1,.81,1.47a.57.57,0,0,1-.16.83c-1,.6-2,1.19-3,1.76a.61.61,0,0,1-.58-1.08c.2-.14.42-.25.63-.37l1.77-1-.58-1a2,2,0,0,1-2.18-.75c-.11.35-.22.63-.3.91a11.66,11.66,0,0,0-.62,3.36.57.57,0,0,0,.3.56,12.73,12.73,0,0,0,3.56,1.22C26.29,44.44,27,44,28,44.29c1.62.41,3.24.84,4.84,1.31a4.67,4.67,0,0,1,1,.66,1,1,0,0,0,.39.2c.55,0,1.09,0,1.64,0s.75.25.75.76c0,1,0,2.07,0,3.11,0,.53-.24.76-.78.76H34.36l0,.11c.48.33.94.68,1.44,1a.62.62,0,0,0,.53,0,11.74,11.74,0,0,0,2.87-2.48,1.9,1.9,0,0,1,.22-2.83c1.09-1.09,2.16-2.2,3.28-3.25A5.3,5.3,0,0,1,43.8,43a1.22,1.22,0,0,0,.43-.31c.28-.42.52-.86.78-1.29s.57-.59,1.08-.3l2.65,1.53c.49.29.55.59.26,1.09L48.25,45l.07.09c.54-.25,1.08-.49,1.6-.77a.58.58,0,0,0,.23-.43,11.18,11.18,0,0,0-.7-3.76,1.9,1.9,0,0,1-2.29-1.41c-.44-1.6-.88-3.2-1.26-4.81A4.12,4.12,0,0,1,46,32.76a1.13,1.13,0,0,0,0-.52c-.23-.46-.5-.9-.75-1.35s-.21-.78.3-1.08l2.62-1.51c.52-.3.8-.21,1.1.31l.74,1.29.1,0c0-.57.09-1.13.14-1.7a.49.49,0,0,0-.32-.55l-1.65-.72a.61.61,0,0,1-.42-.8.6.6,0,0,1,.82-.37c.56.21,1.11.44,1.66.69a1.93,1.93,0,0,1,1.16,2.2,19.16,19.16,0,0,1-1.37,5.26.62.62,0,0,1-1.12.19c-.25-.28-.47-.57-.7-.86a.62.62,0,0,0-.84-.27c-.37.19-.36.51-.26.85.4,1.52.81,3,1.22,4.56a.61.61,0,0,0,.86.5c1.56-.4,3.12-.82,4.68-1.24a.59.59,0,0,0,.5-.61.6.6,0,0,0-.56-.6,8.46,8.46,0,0,0-1-.15c-1.12-.08-1.3-.44-.86-1.52a19.4,19.4,0,0,0,1.55-6.14,3.93,3.93,0,0,0-2-3.92A15.83,15.83,0,0,0,47.19,23.15ZM40.07,50.66c-.81.72-1.58,1.48-2.43,2.13-1.32,1-1.93,1-3.27,0a19.54,19.54,0,0,1-3.49-3.49c-.48-.59-.29-1.08.47-1.2l1.13-.18a.53.53,0,0,0,.46-.54.55.55,0,0,0-.39-.6l-.23-.07-4.49-1.2c-.55-.14-.78,0-.93.54-.42,1.53-.82,3.07-1.24,4.6a.57.57,0,0,0,.26.73.58.58,0,0,0,.8-.17c.29-.36.58-.72.88-1.07.43-.53.79-.52,1.22,0,.64.76,1.28,1.53,1.95,2.26a12.93,12.93,0,0,0,3.33,2.74,3.63,3.63,0,0,0,3.76,0,10.49,10.49,0,0,0,1.62-1.1c.73-.62,1.4-1.3,2.07-1.93ZM31.94,21.32c.81-.72,1.62-1.5,2.5-2.18,1.23-.95,1.86-.93,3.11,0a19.49,19.49,0,0,1,3.68,3.69.6.6,0,0,1-.4,1c-.42.09-.86.11-1.28.23a.83.83,0,0,0-.46.44c-.14.36.07.63.57.76l4.45,1.18c.63.17.85.06,1-.56.41-1.51.8-3,1.22-4.53a.61.61,0,0,0-1.07-.58c-.3.37-.6.75-.9,1.11s-.77.46-1.18,0c-.65-.77-1.28-1.56-2-2.3a12.11,12.11,0,0,0-3.66-2.89,3.49,3.49,0,0,0-3.07,0,13.39,13.39,0,0,0-4,3.22ZM25.4,46.82,25,46.7c-1.07-.36-2.16-.66-3.19-1.11s-1.34-.86-1.22-2.31a18.32,18.32,0,0,1,1.35-5.14c.23-.6.74-.68,1.16-.19.28.32.53.66.81,1a.54.54,0,0,0,.7.11.52.52,0,0,0,.3-.64,2.8,2.8,0,0,0-.06-.28c-.39-1.47-.79-2.94-1.19-4.4-.15-.57-.39-.72-.95-.58l-4.56,1.23c-.34.09-.57.28-.54.66s.29.52.64.57,1,.14,1.49.24a.59.59,0,0,1,.48.79c-.08.28-.2.54-.3.8a19.73,19.73,0,0,0-1.46,6,3.79,3.79,0,0,0,1.33,3.43,12.76,12.76,0,0,0,5.06,2Zm.9-20.46-.09-.1c-.24.11-.58.15-.71.34-.44.61-.8,1.26-1.21,1.92l1.85,1.06.62-1A1.87,1.87,0,0,1,26.3,26.36Zm20.77,5.36a1.94,1.94,0,0,1,2.21.79c.07-.36.22-.66.14-.85-.32-.71-.71-1.37-1.09-2.06l-1.84,1.07ZM45.23,43.45a2,2,0,0,1,.51,2.26c.3-.08.63-.13.77-.32.43-.6.8-1.26,1.2-1.91l-1.85-1.07ZM36.66,22.18v2.09c.29,0,.56,0,.83,0s.36,0,.44-.28a1.7,1.7,0,0,1,1.24-1.14,4.23,4.23,0,0,1,.45-.11c-.28-.23-.47-.52-.68-.54C38.2,22.14,37.45,22.18,36.66,22.18ZM35.34,47.77c-.3,0-.58,0-.86-.05s-.33.05-.4.28a1.69,1.69,0,0,1-1,1.06,6.24,6.24,0,0,1-.64.2c.22.21.39.52.58.53.77.06,1.54,0,2.33,0Z"/></g></g></svg>